<svg width="63" height="62" viewBox="0 0 63 62" fill="none" xmlns="http://www.w3.org/2000/svg">
<g clip-path="url(#clip0_20346_1762)">
<path d="M62.5 31C62.5 13.8792 48.6208 0 31.5 0C14.3792 0 0.5 13.8792 0.5 31C0.5 48.1208 14.3792 62 31.5 62C48.6208 62 62.5 48.1208 62.5 31Z" fill="#F8931A"/>
<path fill-rule="evenodd" clip-rule="evenodd" d="M31.5 17.9375C26.9091 17.9375 23.1875 21.6591 23.1875 26.25C23.1875 30.8409 26.9091 34.5625 31.5 34.5625C36.0909 34.5625 39.8125 30.8409 39.8125 26.25C39.8125 21.6591 36.0909 17.9375 31.5 17.9375ZM20.8125 26.25C20.8125 20.3475 25.5975 15.5625 31.5 15.5625C37.4025 15.5625 42.1875 20.3475 42.1875 26.25C42.1875 32.1525 37.4025 36.9375 31.5 36.9375C25.5975 36.9375 20.8125 32.1525 20.8125 26.25Z" fill="white"/>
<path fill-rule="evenodd" clip-rule="evenodd" d="M31.5 36.9362C28.7899 36.9362 26.1276 37.6496 23.7807 39.0047C21.4337 40.3599 19.4849 42.309 18.13 44.6561C17.8022 45.2241 17.0759 45.4188 16.5079 45.0909C15.9399 44.7631 15.7453 44.0368 16.0731 43.4688C17.6364 40.7606 19.885 38.5116 22.5931 36.948C25.3011 35.3844 28.373 34.5612 31.5 34.5612C34.627 34.5612 37.699 35.3844 40.407 36.948C43.115 38.5116 45.3636 40.7606 46.9269 43.4688C47.2548 44.0368 47.0601 44.7631 46.4921 45.0909C45.9241 45.4188 45.1979 45.2241 44.87 44.6561C43.5152 42.309 41.5663 40.3599 39.2194 39.0047C36.8724 37.6496 34.2101 36.9362 31.5 36.9362Z" fill="white"/>
</g>
<defs>
<clipPath id="clip0_20346_1762">
<rect width="62" height="62" fill="white" transform="translate(0.5)"/>
</clipPath>
</defs>
</svg>
