<svg width="150" height="46" viewBox="0 0 150 46" fill="none" xmlns="http://www.w3.org/2000/svg">
<path d="M0.5 18.4704C0.558594 18.2653 0.617188 18.0603 0.705078 17.8845C0.587891 18.0603 0.529297 18.2653 0.5 18.4704ZM7.73633 12.5524C8 12.5232 8.23437 12.5231 8.49805 12.5231C8.55664 12.5231 8.61523 12.5231 8.67383 12.5231C8.35156 12.4939 8.05859 12.4939 7.73633 12.5524ZM14.0059 14.5739C14.2109 14.779 14.4453 14.9548 14.6211 15.1892C14.4453 14.9548 14.2402 14.7497 14.0059 14.5739Z" fill="#1B70F1"/>
<path d="M12.6582 23.2754L15.7344 25.0625C14.2402 27.6406 11.4863 29.252 8.49805 29.252C3.89844 29.252 0.148438 25.4727 0.148438 20.9023C0.148438 20.082 0.265625 19.2617 0.5 18.5C0.558594 18.2949 0.617188 18.0898 0.705078 17.9141C0.910156 17.5625 1.20312 17.2402 1.64258 17.0645C1.84766 16.9766 2.05273 16.918 2.25781 16.8594C2.43359 15.3652 3.42969 14.6914 4.74805 14.3691C4.95312 14.3105 5.1875 14.1934 5.33398 14.0176C6.06641 13.2266 6.88672 12.7285 7.73633 12.582C8 12.5527 8.23438 12.5527 8.49805 12.5527C8.55664 12.5527 8.61523 12.5527 8.67383 12.5527C9.46484 12.6406 10.2852 12.9922 11.0469 13.666C11.2227 13.8125 11.5156 13.9004 11.75 13.9004C12.6582 13.9297 13.4199 14.1641 14.0059 14.6035C14.2109 14.8086 14.4453 14.9844 14.6211 15.2187C15.0312 15.6875 15.4121 16.1855 15.7344 16.7422L15.3828 16.9473L13.625 17.9727C13.2734 17.9434 12.9219 17.8555 12.5703 17.8262C12.4238 17.7969 12.2773 17.7969 12.1309 17.8262C11.9551 17.6211 11.7793 17.4453 11.5742 17.2695C11.8672 17.2109 12.2188 17.2109 12.5703 17.2402C13.0977 17.2988 13.332 17.0352 13.0977 16.5371C12.9805 16.2441 12.7754 15.9805 12.5996 15.6582C13.2734 15.8633 13.332 15.8926 13.8301 16.8594C14.0059 17.1816 14.2402 17.4453 14.5625 17.2402C14.7676 17.123 14.9141 16.7129 14.8555 16.4492C14.6797 15.4238 13.127 14.3398 12.1016 14.4863C11.9551 14.5156 11.7207 14.75 11.7207 14.8965C11.7207 16.2734 11.7207 16.2734 10.5195 16.5371L10.4902 16.5664C10.3145 16.4785 10.1094 16.3906 9.9043 16.332C9.75781 15.3066 9.40625 15.1309 8.67383 14.252C8.9668 14.3398 9.25977 14.4277 9.49414 14.6035C9.78711 14.8379 10.0215 15.1895 10.3145 15.4531C10.4902 15.5996 10.7832 15.6289 11.0176 15.7168C11.0762 15.4531 11.2227 15.1895 11.1641 14.9551C10.8711 13.959 10.1094 13.4023 9.11328 13.1973C8.11719 12.9922 7.17969 13.1094 6.38867 13.8418C6.27148 13.9297 6.21289 14.0762 6.24219 14.0469C6.88672 14.457 7.58984 14.75 8.08789 15.2773C8.32227 15.541 8.49805 15.8047 8.61523 16.127C8.58594 16.127 8.52734 16.127 8.46875 16.127C8.29297 16.127 8.08789 16.127 7.91211 16.1563C7.70703 15.6875 7.35547 15.3066 6.91602 15.0723C5.89062 14.5742 4.19141 14.8086 3.3418 15.5703C2.87305 15.9805 2.66797 16.4785 2.87305 17.0645C2.93164 17.2402 3.22461 17.4453 3.42969 17.4746C4.04492 17.5625 4.39648 17.1523 4.74805 16.7129C4.80664 16.6543 4.80664 16.5371 4.83594 16.3906H3.78125C4.74805 15.541 5.71484 15.6875 6.56445 16.5371C6.38867 16.625 6.21289 16.6836 6.06641 16.8008C5.77344 16.5664 5.53906 16.5371 5.27539 16.9473C5.09961 17.2109 4.89453 17.4453 4.66016 17.6797C4.01562 18.3242 3.19531 18.3242 2.49219 17.709C2.375 17.5918 2.05273 17.5332 1.96484 17.6211C1.70117 17.7969 1.34961 18.0898 1.34961 18.3242C1.34961 18.6465 1.61328 19.0273 1.87695 19.2324C2.46289 19.6426 3.19531 19.584 3.81055 19.2617C3.89844 19.2324 3.95703 19.1738 4.04492 19.1445C3.83984 19.6133 3.72266 20.1113 3.69336 20.6387C3.69336 20.7559 3.69336 20.8731 3.69336 20.9902C3.69336 23.6563 5.86133 25.7949 8.49805 25.7949C10.2852 25.6777 11.8379 24.7109 12.6582 23.2754Z" fill="#1B70F1"/>
<path d="M25.7207 17.123L24.7246 21.1367C24.5488 21.0488 24.3437 20.9609 24.0508 20.873C23.7578 20.8145 23.4648 20.7852 23.1719 20.7852C22.8496 20.7852 22.5273 20.8437 22.2344 20.9609C21.9414 21.0781 21.707 21.2539 21.502 21.459C21.2969 21.6641 21.1504 21.9277 21.0332 22.2207C20.916 22.5137 20.8574 22.8359 20.8574 23.1875V29.252H17.1953V17.1523H20.6523L20.7402 18.998C20.8281 18.8516 20.9453 18.7051 21.0332 18.5586C21.4434 18.0312 21.9414 17.6211 22.498 17.3281C23.0547 17.0352 23.6699 16.8887 24.2852 16.8887C24.5488 16.8887 24.8125 16.918 25.0469 16.9473C25.3105 17.0059 25.5156 17.0644 25.7207 17.123Z" fill="#1B70F1"/>
<path d="M39.9316 17.1523L34.7754 29.2227L32.6953 34.4668H29.0918L31.4648 28.9004L26.0742 17.1523H30.1758L32.7246 23.2168C32.8711 23.5098 32.9883 23.832 33.1055 24.1836C33.1641 24.3008 33.1934 24.418 33.2227 24.5352C33.3398 24.2129 33.4277 23.8906 33.5742 23.5098L35.8008 17.123H39.9316V17.1523Z" fill="#1B70F1"/>
<path d="M53.584 19.9355C53.1152 18.998 52.4707 18.2656 51.6797 17.7383C50.8887 17.2109 49.9512 16.918 48.9258 16.918C48.2227 16.918 47.5781 17.0352 46.9336 17.2988C46.2891 17.5625 45.791 17.8848 45.3809 18.2949C45.3223 18.3535 45.2637 18.4121 45.2344 18.4707L45.1758 17.1523H41.7188V34.2324H45.3809V27.9922C45.8203 28.4316 46.3184 28.7832 46.9629 29.0176C47.5781 29.2813 48.2227 29.3984 48.9258 29.3984C49.9805 29.3984 50.918 29.1348 51.709 28.6074C52.5293 28.0801 53.1445 27.3477 53.6133 26.3809C54.082 25.4434 54.3164 24.3594 54.3164 23.1289C54.2578 21.957 54.0234 20.873 53.584 19.9355ZM50.3613 24.8867C50.127 25.3555 49.8047 25.707 49.3945 26C48.9844 26.2637 48.5156 26.3809 47.959 26.3809C47.4023 26.3809 46.9043 26.2637 46.4941 26C46.084 25.7363 45.7617 25.3848 45.5273 24.8867C45.293 24.3887 45.1758 23.8613 45.1758 23.1875C45.1758 22.543 45.293 21.9863 45.5273 21.5176C45.7617 21.0488 46.084 20.668 46.4941 20.4043C46.9043 20.1406 47.4023 20.0234 47.959 20.0234C48.5156 20.0234 49.0137 20.1406 49.3945 20.4043C49.8047 20.668 50.0977 21.0488 50.332 21.5176C50.5664 21.9863 50.6836 22.543 50.6836 23.1875C50.7129 23.832 50.5957 24.3887 50.3613 24.8867Z" fill="#1B70F1"/>
<path d="M63.6621 17.1523V17.4746C63.4277 17.7676 63.2227 18.0605 63.0469 18.3828C62.666 18.998 62.373 19.6426 62.168 20.3457H61.3184V29.252H57.6855V20.3457H55.5469V17.1523H57.6855V14.1055H61.3184V17.1523H63.6621Z" fill="#1B70F1"/>
<path d="M71.3066 29.457C70.0469 29.457 68.9336 29.1934 67.9375 28.6367C66.9707 28.0801 66.1797 27.3477 65.623 26.4102C65.0664 25.4727 64.7734 24.3887 64.7734 23.1875C64.7734 21.9863 65.0664 20.9023 65.623 19.9648C66.1797 19.0273 66.9707 18.2949 67.9375 17.7383C68.9043 17.1816 70.0469 16.918 71.3066 16.918C72.5664 16.918 73.6797 17.1816 74.6758 17.7383C75.6426 18.2949 76.4336 19.0273 76.9902 19.9648C77.5469 20.9023 77.8398 21.9863 77.8398 23.1875C77.8398 24.3887 77.5469 25.4727 76.9902 26.4102C76.4336 27.3477 75.6719 28.0801 74.6758 28.6367C73.6797 29.1934 72.5664 29.457 71.3066 29.457ZM71.3066 26.3223C71.8633 26.3223 72.332 26.1758 72.7715 25.9121C73.1816 25.6484 73.5332 25.2676 73.7676 24.7988C74.002 24.3301 74.1191 23.8027 74.1191 23.1875C74.1484 22.5723 74.0312 22.0449 73.7676 21.5469C73.5332 21.0781 73.1816 20.6973 72.7715 20.4336C72.3613 20.1699 71.8633 20.0234 71.3066 20.0234C70.75 20.0234 70.2812 20.1699 69.8418 20.4336C69.4023 20.6973 69.0801 21.0781 68.8164 21.5469C68.582 22.0156 68.4648 22.5723 68.4648 23.1875C68.4355 23.8027 68.5527 24.3301 68.8164 24.7988C69.0508 25.2676 69.4023 25.6484 69.8418 25.9121C70.2812 26.1758 70.75 26.3223 71.3066 26.3223Z" fill="#1B70F1"/>
<path d="M91.291 22.543C90.998 21.9863 90.5879 21.5176 90.0898 21.1367C89.7383 20.873 89.3574 20.6973 88.9473 20.5508C89.4746 20.3164 89.9141 19.9648 90.2363 19.5254C90.6758 18.9102 90.9102 18.1484 90.9102 17.2402C90.9102 16.4199 90.7344 15.7168 90.3242 15.1309C89.9434 14.5449 89.3574 14.1055 88.5957 13.7832C87.834 13.4609 86.9258 13.3145 85.8125 13.3145H78.7812V17.2695C79.0742 17.6211 79.3379 18.002 79.5723 18.4121C80.4219 19.8184 80.8613 21.4297 80.8613 23.1875C80.8613 24.9453 80.4512 26.5566 79.6016 27.9629C79.3672 28.373 79.1035 28.7539 78.7812 29.1055V29.2227H86.0469C86.8672 29.2227 87.6582 29.1348 88.332 28.9297C89.0352 28.7246 89.6211 28.4316 90.1484 28.0215C90.6758 27.6113 91.0566 27.1133 91.3203 26.498C91.584 25.9121 91.7305 25.209 91.7305 24.3887C91.7305 23.7148 91.584 23.0996 91.291 22.543ZM82.4141 16.5371H85.1094C85.7832 16.5371 86.2813 16.6836 86.6035 16.9766C86.9258 17.2695 87.1016 17.6504 87.1016 18.1191C87.1016 18.4414 87.043 18.7344 86.8965 18.9687C86.75 19.2031 86.5449 19.3789 86.252 19.5254C85.959 19.6426 85.6367 19.7012 85.2266 19.7012H82.3848V16.5371H82.4141ZM87.6582 25.209C87.4824 25.4727 87.2773 25.6777 86.9551 25.7949C86.6621 25.9414 86.2813 26 85.8711 26H82.3848V22.5723H85.7539C86.1934 22.5723 86.5742 22.6309 86.8965 22.748C87.2188 22.8652 87.4531 23.0703 87.6289 23.3047C87.8047 23.5391 87.8926 23.832 87.8926 24.1836C87.9219 24.623 87.834 24.9453 87.6582 25.209Z" fill="white"/>
<path d="M102.861 17.123L101.865 21.1367C101.689 21.0488 101.484 20.9609 101.191 20.873C100.898 20.7852 100.635 20.7852 100.312 20.7852C99.9902 20.7852 99.668 20.8438 99.375 20.9609C99.082 21.0781 98.8477 21.2539 98.6426 21.459C98.4375 21.6641 98.291 21.9277 98.1738 22.2207C98.0566 22.5137 97.998 22.8359 97.998 23.1875V29.252H94.3359V17.1523H97.793L97.8809 18.998C97.9688 18.8516 98.0566 18.7051 98.1738 18.5879C98.584 18.0605 99.082 17.6504 99.6387 17.3574C100.195 17.0645 100.811 16.918 101.426 16.918C101.689 16.918 101.953 16.9473 102.187 16.9766C102.422 17.0059 102.656 17.0645 102.861 17.123Z" fill="white"/>
<path d="M112.354 17.1523V18.6172C112.119 18.3242 111.885 18.0605 111.592 17.8555C111.24 17.5625 110.801 17.3281 110.332 17.1523C109.863 16.9766 109.336 16.8887 108.75 16.8887C107.695 16.8887 106.758 17.1523 105.938 17.6797C105.117 18.207 104.473 18.9687 104.004 19.9062C103.535 20.8437 103.301 21.9277 103.301 23.1582C103.301 24.3594 103.535 25.4434 104.004 26.3809C104.473 27.3184 105.117 28.0801 105.908 28.6074C106.699 29.1348 107.607 29.3984 108.633 29.3984C109.189 29.3984 109.688 29.3105 110.186 29.1641C110.684 28.9883 111.123 28.7832 111.504 28.4902C111.797 28.2852 112.061 28.0215 112.266 27.7871V29.2227H115.957V17.1523H112.354ZM112.061 24.8867C111.826 25.3555 111.504 25.7363 111.094 26C110.684 26.2637 110.186 26.3809 109.629 26.3809C109.072 26.3809 108.604 26.2637 108.223 26C107.812 25.7363 107.49 25.3848 107.285 24.8867C107.051 24.418 106.934 23.8613 106.934 23.1875C106.934 22.543 107.051 21.9863 107.285 21.4883C107.52 21.0195 107.812 20.6387 108.223 20.375C108.604 20.1113 109.102 19.9941 109.629 19.9941C110.186 19.9941 110.684 20.1113 111.094 20.375C111.504 20.6387 111.826 21.0195 112.061 21.4883C112.295 21.957 112.412 22.543 112.412 23.1875C112.412 23.832 112.295 24.3887 112.061 24.8867Z" fill="white"/>
<path d="M121.201 14.7793C120.527 14.7793 119.971 14.6035 119.59 14.2812C119.209 13.959 119.004 13.4902 119.004 12.875C119.004 12.3184 119.209 11.8789 119.59 11.5273C119.971 11.1758 120.527 11 121.172 11C121.846 11 122.373 11.1758 122.754 11.498C123.135 11.8203 123.311 12.2891 123.311 12.875C123.311 13.4316 123.105 13.9004 122.725 14.252C122.344 14.6035 121.875 14.7793 121.201 14.7793ZM119.385 29.252V17.1523H123.047V29.2227H119.385V29.252Z" fill="white"/>
<path d="M137.844 21.8105V29.2227H134.182V22.1328C134.182 21.6348 134.123 21.2539 133.977 20.9316C133.83 20.6094 133.625 20.375 133.361 20.2285C133.068 20.082 132.746 19.9941 132.336 20.0234C132.014 20.0234 131.721 20.082 131.457 20.1699C131.193 20.2578 130.959 20.4043 130.754 20.6094C130.549 20.7852 130.402 21.0195 130.285 21.2539C130.168 21.4883 130.109 21.752 130.109 22.0449V29.2812H126.477V17.1523H129.934L129.992 18.6465C130.051 18.5586 130.139 18.4707 130.197 18.3828C130.637 17.9434 131.164 17.5625 131.75 17.2988C132.365 17.0352 132.98 16.8887 133.654 16.8887C134.563 16.8887 135.324 17.0645 135.939 17.4453C136.555 17.8262 137.023 18.3828 137.346 19.1152C137.697 19.8477 137.844 20.7559 137.844 21.8105Z" fill="white"/>
<path d="M144.961 29.457C143.789 29.457 142.734 29.2813 141.826 28.9004C140.918 28.5195 140.215 28.0215 139.688 27.377L141.885 25.4727C142.354 25.9414 142.881 26.293 143.467 26.498C144.053 26.7324 144.609 26.8203 145.137 26.8203C145.342 26.8203 145.547 26.791 145.693 26.7617C145.869 26.7031 145.986 26.6445 146.104 26.5566C146.221 26.4688 146.309 26.3809 146.367 26.2637C146.426 26.1465 146.455 26.0293 146.455 25.8535C146.455 25.5606 146.309 25.3262 146.045 25.1504C145.898 25.0625 145.693 24.9746 145.371 24.8867C145.049 24.7695 144.639 24.6523 144.141 24.5352C143.438 24.3594 142.822 24.125 142.295 23.8906C141.768 23.627 141.328 23.334 141.006 23.0117C140.713 22.6895 140.479 22.3379 140.303 21.957C140.127 21.5762 140.039 21.1367 140.039 20.6387C140.039 20.082 140.186 19.5547 140.449 19.1152C140.713 18.6465 141.064 18.2656 141.504 17.9434C141.943 17.6211 142.471 17.3574 143.057 17.1816C143.643 17.0059 144.258 16.918 144.873 16.918C145.547 16.918 146.191 17.0059 146.777 17.1523C147.393 17.2988 147.949 17.5039 148.477 17.7969C149.004 18.0605 149.473 18.3828 149.883 18.7637L147.979 20.9023C147.715 20.6387 147.393 20.4043 147.07 20.1992C146.719 19.9941 146.367 19.8184 146.016 19.7012C145.664 19.584 145.313 19.5254 145.02 19.5254C144.785 19.5254 144.58 19.5547 144.404 19.584C144.229 19.6133 144.082 19.6719 143.965 19.7598C143.848 19.8477 143.76 19.9355 143.701 20.0527C143.643 20.1699 143.613 20.2871 143.613 20.4629C143.613 20.6094 143.643 20.7559 143.73 20.9023C143.818 21.0488 143.936 21.166 144.082 21.2539C144.229 21.3418 144.463 21.459 144.814 21.5469C145.137 21.6641 145.605 21.8105 146.191 21.957C146.895 22.1621 147.51 22.3672 148.037 22.6309C148.564 22.8652 148.975 23.1582 149.268 23.5098C149.502 23.7734 149.678 24.0664 149.824 24.418C149.941 24.7695 150 25.1211 150 25.5313C150 26.293 149.795 26.9961 149.355 27.582C148.916 28.168 148.33 28.666 147.568 28.9883C146.807 29.3105 145.928 29.457 144.961 29.457Z" fill="white"/>
</svg>
