<svg width="18" height="18" viewBox="0 0 18 18" fill="none" xmlns="http://www.w3.org/2000/svg">
<path fill-rule="evenodd" clip-rule="evenodd" d="M16.7102 14.4602C16.9299 14.2406 16.9299 13.8844 16.7102 13.6648L9.96025 6.91475C9.74058 6.69508 9.38442 6.69508 9.16475 6.91475L6.75 9.32951L2.08525 4.66475C1.86558 4.44508 1.50942 4.44508 1.28975 4.66475C1.07008 4.88442 1.07008 5.24058 1.28975 5.46025L6.35225 10.5227C6.57192 10.7424 6.92808 10.7424 7.14775 10.5227L9.5625 8.10799L15.9148 14.4602C16.1344 14.6799 16.4906 14.6799 16.7102 14.4602Z" fill="#F74E2C"/>
<path fill-rule="evenodd" clip-rule="evenodd" d="M11.25 14.0625C11.25 14.3732 11.5018 14.625 11.8125 14.625H16.3125C16.6232 14.625 16.875 14.3732 16.875 14.0625V9.5625C16.875 9.25184 16.6232 9 16.3125 9C16.0018 9 15.75 9.25184 15.75 9.5625V13.5H11.8125C11.5018 13.5 11.25 13.7518 11.25 14.0625Z" fill="#F74E2C"/>
</svg>
