<svg width="63" height="62" viewBox="0 0 63 62" fill="none" xmlns="http://www.w3.org/2000/svg">
<g clip-path="url(#clip0_20346_1812)">
<path d="M62.5 31C62.5 13.8792 48.6208 0 31.5 0C14.3792 0 0.5 13.8792 0.5 31C0.5 48.1208 14.3792 62 31.5 62C48.6208 62 62.5 48.1208 62.5 31Z" fill="#F72357"/>
<path fill-rule="evenodd" clip-rule="evenodd" d="M17.25 17.9375C17.9058 17.9375 18.4375 18.4692 18.4375 19.125V41.6875H45.75C46.4058 41.6875 46.9375 42.2192 46.9375 42.875C46.9375 43.5308 46.4058 44.0625 45.75 44.0625H17.25C16.5942 44.0625 16.0625 43.5308 16.0625 42.875V19.125C16.0625 18.4692 16.5942 17.9375 17.25 17.9375Z" fill="white"/>
<path fill-rule="evenodd" clip-rule="evenodd" d="M44.2147 20.6603C44.6784 21.1241 44.6784 21.8759 44.2147 22.3397L32.3397 34.2147C31.8759 34.6784 31.1241 34.6784 30.6603 34.2147L26.75 30.3044L18.0897 38.9647C17.6259 39.4284 16.8741 39.4284 16.4103 38.9647C15.9466 38.5009 15.9466 37.7491 16.4103 37.2853L25.9103 27.7853C26.3741 27.3216 27.1259 27.3216 27.5897 27.7853L31.5 31.6956L42.5353 20.6603C42.9991 20.1966 43.7509 20.1966 44.2147 20.6603Z" fill="white"/>
<path fill-rule="evenodd" clip-rule="evenodd" d="M36.25 21.5C36.25 20.8442 36.7817 20.3125 37.4375 20.3125H43.375C44.0308 20.3125 44.5625 20.8442 44.5625 21.5V27.4375C44.5625 28.0933 44.0308 28.625 43.375 28.625C42.7192 28.625 42.1875 28.0933 42.1875 27.4375V22.6875H37.4375C36.7817 22.6875 36.25 22.1558 36.25 21.5Z" fill="white"/>
</g>
<defs>
<clipPath id="clip0_20346_1812">
<rect width="62" height="62" fill="white" transform="translate(0.5)"/>
</clipPath>
</defs>
</svg>
