<svg width="63" height="62" viewBox="0 0 63 62" fill="none" xmlns="http://www.w3.org/2000/svg">
<path d="M62.5 31C62.5 13.8792 48.6208 0 31.5 0C14.3792 0 0.5 13.8792 0.5 31C0.5 48.1208 14.3792 62 31.5 62C48.6208 62 62.5 48.1208 62.5 31Z" fill="#BD47FC"/>
<path fill-rule="evenodd" clip-rule="evenodd" d="M30.8776 15.7387C31.2593 15.5038 31.7407 15.5038 32.1224 15.7387L47.5599 25.2387C48.0123 25.5171 48.2248 26.0622 48.0801 26.5734C47.9354 27.0846 47.4688 27.4375 46.9375 27.4375H16.0625C15.5312 27.4375 15.0646 27.0846 14.9199 26.5734C14.7752 26.0622 14.9877 25.5171 15.4401 25.2387L30.8776 15.7387ZM20.258 25.0625H42.742L31.5 18.1443L20.258 25.0625Z" fill="white"/>
<path fill-rule="evenodd" clip-rule="evenodd" d="M20.8125 25.0625C21.4683 25.0625 22 25.5942 22 26.25V38.125C22 38.7808 21.4683 39.3125 20.8125 39.3125C20.1567 39.3125 19.625 38.7808 19.625 38.125V26.25C19.625 25.5942 20.1567 25.0625 20.8125 25.0625Z" fill="white"/>
<path fill-rule="evenodd" clip-rule="evenodd" d="M27.9375 25.0625C28.5933 25.0625 29.125 25.5942 29.125 26.25V38.125C29.125 38.7808 28.5933 39.3125 27.9375 39.3125C27.2817 39.3125 26.75 38.7808 26.75 38.125V26.25C26.75 25.5942 27.2817 25.0625 27.9375 25.0625Z" fill="white"/>
<path fill-rule="evenodd" clip-rule="evenodd" d="M35.0625 25.0625C35.7183 25.0625 36.25 25.5942 36.25 26.25V38.125C36.25 38.7808 35.7183 39.3125 35.0625 39.3125C34.4067 39.3125 33.875 38.7808 33.875 38.125V26.25C33.875 25.5942 34.4067 25.0625 35.0625 25.0625Z" fill="white"/>
<path fill-rule="evenodd" clip-rule="evenodd" d="M42.1875 25.0625C42.8433 25.0625 43.375 25.5942 43.375 26.25V38.125C43.375 38.7808 42.8433 39.3125 42.1875 39.3125C41.5317 39.3125 41 38.7808 41 38.125V26.25C41 25.5942 41.5317 25.0625 42.1875 25.0625Z" fill="white"/>
<path fill-rule="evenodd" clip-rule="evenodd" d="M16.0625 38.125C16.0625 37.4692 16.5942 36.9375 17.25 36.9375H45.75C46.4058 36.9375 46.9375 37.4692 46.9375 38.125C46.9375 38.7808 46.4058 39.3125 45.75 39.3125H17.25C16.5942 39.3125 16.0625 38.7808 16.0625 38.125Z" fill="white"/>
<path fill-rule="evenodd" clip-rule="evenodd" d="M13.6875 42.875C13.6875 42.2192 14.2192 41.6875 14.875 41.6875H48.125C48.7808 41.6875 49.3125 42.2192 49.3125 42.875C49.3125 43.5308 48.7808 44.0625 48.125 44.0625H14.875C14.2192 44.0625 13.6875 43.5308 13.6875 42.875Z" fill="white"/>
</svg>
