<svg width="63" height="62" viewBox="0 0 63 62" fill="none" xmlns="http://www.w3.org/2000/svg">
<path d="M62.5 31C62.5 13.8792 48.6208 0 31.5 0C14.3792 0 0.5 13.8792 0.5 31C0.5 48.1208 14.3792 62 31.5 62C48.6208 62 62.5 48.1208 62.5 31Z" fill="#27C28A"/>
<path fill-rule="evenodd" clip-rule="evenodd" d="M20.8125 20.3125C20.4976 20.3125 20.1955 20.4376 19.9728 20.6603C19.7501 20.883 19.625 21.1851 19.625 21.5C19.625 21.8149 19.7501 22.117 19.9728 22.3397C20.1955 22.5624 20.4976 22.6875 20.8125 22.6875H44.5625C45.1924 22.6875 45.7965 22.9377 46.2419 23.3831C46.6873 23.8285 46.9375 24.4326 46.9375 25.0625V41.6875C46.9375 42.3174 46.6873 42.9215 46.2419 43.3669C45.7965 43.8123 45.1924 44.0625 44.5625 44.0625H20.8125C19.8677 44.0625 18.9615 43.6872 18.2934 43.0191C17.6253 42.351 17.25 41.4448 17.25 40.5V21.5C17.25 20.5552 17.6253 19.649 18.2934 18.9809C18.9615 18.3128 19.8677 17.9375 20.8125 17.9375H41C41.6558 17.9375 42.1875 18.4692 42.1875 19.125C42.1875 19.7808 41.6558 20.3125 41 20.3125H20.8125ZM19.625 24.8588V40.5C19.625 40.8149 19.7501 41.117 19.9728 41.3397C20.1955 41.5624 20.4976 41.6875 20.8125 41.6875H44.5625V25.0625H20.8125C20.4041 25.0625 20.0029 24.9924 19.625 24.8588Z" fill="white"/>
<path d="M39.2188 35.1562C40.2025 35.1562 41 34.3588 41 33.375C41 32.3912 40.2025 31.5938 39.2188 31.5938C38.235 31.5938 37.4375 32.3912 37.4375 33.375C37.4375 34.3588 38.235 35.1562 39.2188 35.1562Z" fill="white"/>
</svg>
